<svg width="34" height="34" viewBox="0 0 34 34" fill="none" xmlns="http://www.w3.org/2000/svg">
<g clip-path="url(#clip0_17_319)">
<path d="M33.7025 19.465L30.6637 8.18124C30.4275 7.34311 29.9239 6.60511 29.2296 6.07958C28.5352 5.55405 27.6882 5.26976 26.8175 5.26999H25.8825V7.94749H26.8175C27.1071 7.95054 27.388 8.04747 27.6179 8.22372C27.8478 8.39998 28.0143 8.64605 28.0925 8.92499L29.75 15.0025C28.6173 14.4539 27.3747 14.1705 26.1162 14.1737C24.2583 14.1143 22.4412 14.7259 20.9974 15.8966C19.5536 17.0673 18.5796 18.7187 18.2537 20.5487H15.7675C15.4416 18.7187 14.4676 17.0673 13.0238 15.8966C11.5799 14.7259 9.7628 14.1143 7.90495 14.1737C6.63907 14.165 5.38826 14.4486 4.24995 15.0025L5.90745 8.92499C5.9856 8.64605 6.15213 8.39998 6.38202 8.22372C6.61192 8.04747 6.89278 7.95054 7.18245 7.94749H8.11745V5.26999H7.18245C6.31167 5.26976 5.46465 5.55405 4.77034 6.07958C4.07602 6.60511 3.57242 7.34311 3.3362 8.18124L0.297448 19.465C0.0990988 20.1122 -0.00118053 20.7855 -5.16088e-05 21.4625C0.0937724 23.4712 0.976902 25.3616 2.45726 26.7226C3.93761 28.0836 5.89545 28.805 7.90495 28.73C9.60994 28.7681 11.2813 28.2522 12.6683 27.2599C14.0552 26.2675 15.083 24.8522 15.5975 23.2262H18.4025C18.9169 24.8522 19.9447 26.2675 21.3316 27.2599C22.7186 28.2522 24.39 28.7681 26.095 28.73C28.1044 28.805 30.0623 28.0836 31.5426 26.7226C33.023 25.3616 33.9061 23.4712 34 21.4625C34.0011 20.7855 33.9008 20.1122 33.7025 19.465ZM7.90495 26.0525C6.60512 26.1284 5.32768 25.6893 4.34927 24.8302C3.37086 23.9711 2.77023 22.7612 2.67745 21.4625C2.76489 20.16 3.36322 18.9447 4.34222 18.0811C5.32123 17.2175 6.60168 16.7755 7.90495 16.8512C9.21041 16.7753 10.4932 17.2166 11.4756 18.0797C12.458 18.9428 13.0609 20.1581 13.1537 21.4625C13.0556 22.7631 12.4504 23.973 11.4686 24.8316C10.4868 25.6902 9.20699 26.1286 7.90495 26.0525ZM26.095 26.0525C24.7929 26.1286 23.5131 25.6902 22.5313 24.8316C21.5495 23.973 20.9443 22.7631 20.8462 21.4625C20.939 20.1581 21.5419 18.9428 22.5243 18.0797C23.5067 17.2166 24.7895 16.7753 26.095 16.8512C27.3982 16.7755 28.6787 17.2175 29.6577 18.0811C30.6367 18.9447 31.235 20.16 31.3225 21.4625C31.2297 22.7612 30.629 23.9711 29.6506 24.8302C28.6722 25.6893 27.3948 26.1284 26.095 26.0525Z" fill="white"/>
</g>
<defs>
<clipPath id="clip0_17_319">
<rect width="34" height="34" fill="white"/>
</clipPath>
</defs>
</svg>
