<svg width="88" height="88" viewBox="0 0 88 88" fill="none" xmlns="http://www.w3.org/2000/svg">
<path opacity="0.4" d="M70.4392 23.32C66.6259 15.62 59.2559 9.93671 50.7126 8.06671C41.7659 6.08671 32.5992 8.21337 25.5959 13.86C18.5559 19.47 14.5592 27.8667 14.5592 36.85C14.5592 46.3467 20.2426 56.2833 28.8226 62.04V65.0833C28.7859 66.11 28.7492 67.6867 29.9959 68.97C31.2792 70.29 33.1859 70.4367 34.6892 70.4367H53.4992C55.4792 70.4367 56.9826 69.8867 58.0092 68.86C59.4026 67.43 59.3659 65.5967 59.3292 64.6067V62.04C70.6959 54.3767 77.8459 38.2067 70.4392 23.32Z" fill="white"/>
<path d="M55.9504 80.6663C55.7304 80.6663 55.4737 80.6297 55.2537 80.5563C47.8837 78.4663 40.1471 78.4663 32.777 80.5563C31.4203 80.923 29.9903 80.153 29.6237 78.7963C29.2203 77.4397 30.027 76.0097 31.3837 75.643C39.6704 73.2963 48.3971 73.2963 56.6837 75.643C58.0404 76.0463 58.8471 77.4397 58.4437 78.7963C58.0771 79.933 57.0504 80.6663 55.9504 80.6663Z" fill="white"/>
<path d="M44.0015 50.783C43.5248 50.783 43.0481 50.673 42.6448 50.4163C41.3248 49.6463 40.8848 47.9596 41.6181 46.6763L44.7348 41.2496H41.6548C39.8215 41.2496 38.3181 40.443 37.5115 39.0863C36.7048 37.693 36.7781 36.0063 37.6948 34.393L41.6181 27.573C42.3881 26.253 44.0748 25.813 45.3581 26.5463C46.6781 27.3163 47.1181 29.003 46.3848 30.2863L43.2681 35.7496H46.3481C48.1815 35.7496 49.6848 36.5563 50.4915 37.913C51.2981 39.3063 51.2248 40.993 50.3081 42.6063L46.3848 49.4263C45.8715 50.3063 44.9548 50.783 44.0015 50.783Z" fill="white"/>
</svg>
