<svg width="50" height="50" viewBox="0 0 50 50" fill="none" xmlns="http://www.w3.org/2000/svg">
<g clip-path="url(#clip0_17_306)">
<path d="M50 19.625C50.0011 18.9462 49.8224 18.2793 49.482 17.6919C49.1417 17.1046 48.6519 16.6179 48.0625 16.2813L27 3.78126C26.393 3.4271 25.7028 3.24048 25 3.24048C24.2972 3.24048 23.607 3.4271 23 3.78126L1.90626 16.2813C1.32336 16.6271 0.840486 17.1187 0.505097 17.7077C0.169708 18.2967 -0.00665283 18.9628 -0.00665283 19.6406C-0.00665283 20.3184 0.169708 20.9846 0.505097 21.5735C0.840486 22.1625 1.32336 22.6541 1.90626 23L7.90626 26.5V35.2813C7.90987 35.9675 8.09 36.6414 8.42931 37.2379C8.76863 37.8344 9.25573 38.3336 9.84376 38.6875L23.125 46.3438C23.718 46.6721 24.3847 46.8443 25.0625 46.8443C25.7403 46.8443 26.407 46.6721 27 46.3438L40.2813 38.6875C40.8693 38.3336 41.3564 37.8344 41.6957 37.2379C42.035 36.6414 42.2152 35.9675 42.2188 35.2813V26.4063L46.0938 24.125V32.625H50V19.625ZM38.3438 35.25L25 42.9375L11.8125 35.2813V28.8125L23 35.4688C23.6091 35.8168 24.2985 35.9999 25 35.9999C25.7015 35.9999 26.3909 35.8168 27 35.4688L38.3125 28.7188L38.3438 35.25ZM25 32.0938L3.90626 19.5938L25 7.06251L46.0938 19.5625L25 32.0938Z" fill="white"/>
</g>
<defs>
<clipPath id="clip0_17_306">
<rect width="50" height="50" fill="white"/>
</clipPath>
</defs>
</svg>
