<svg width="35" height="35" viewBox="0 0 35 35" fill="none" xmlns="http://www.w3.org/2000/svg">
<path fill-rule="evenodd" clip-rule="evenodd" d="M13.8542 24.7917C16.3479 24.7917 18.6477 23.956 20.4896 22.5502L27.4065 29.4685C27.6815 29.7342 28.0499 29.8812 28.4322 29.8779C28.8146 29.8745 29.1804 29.7212 29.4508 29.4508C29.7212 29.1804 29.8745 28.8146 29.8779 28.4323C29.8812 28.0499 29.7342 27.6815 29.4685 27.4065L22.5502 20.4881C24.047 18.5261 24.8363 16.1157 24.7898 13.6484C24.7434 11.1811 23.864 8.80202 22.2945 6.89774C20.7249 4.99346 18.5576 3.6759 16.1446 3.15915C13.7316 2.64241 11.2147 2.95686 9.00301 4.0514C6.79131 5.14594 5.01474 6.95624 3.96199 9.18814C2.90923 11.42 2.64218 13.9423 3.20421 16.3452C3.76624 18.7481 5.12433 20.8903 7.05779 22.4237C8.99125 23.9571 11.3864 24.7916 13.8542 24.7917ZM21.875 13.8542C21.875 15.9814 21.0299 18.0216 19.5257 19.5258C18.0216 21.03 15.9814 21.875 13.8542 21.875C11.7269 21.875 9.68678 21.03 8.18258 19.5258C6.67838 18.0216 5.83333 15.9814 5.83333 13.8542C5.83333 11.7269 6.67838 9.68678 8.18258 8.18258C9.68678 6.67839 11.7269 5.83334 13.8542 5.83334C15.9814 5.83334 18.0216 6.67839 19.5257 8.18258C21.0299 9.68678 21.875 11.7269 21.875 13.8542Z" fill="white"/>
</svg>
